<?xml version="1.0" encoding="UTF-8" standalone="no"?>
<!-- Created with Inkscape (http://www.inkscape.org/) -->

<svg
   version="1.1"
   id="svg2"
   width="1056"
   height="816"
   viewBox="0 0 1056 816"
   sodipodi:docname="MLAB_logotipo.ai"
   xmlns:inkscape="http://www.inkscape.org/namespaces/inkscape"
   xmlns:sodipodi="http://sodipodi.sourceforge.net/DTD/sodipodi-0.dtd"
   xmlns="http://www.w3.org/2000/svg"
   xmlns:svg="http://www.w3.org/2000/svg">
  <defs
     id="defs6">
    <clipPath
       clipPathUnits="userSpaceOnUse"
       id="clipPath16">
      <path
         d="M 0,612 H 792 V 0 H 0 Z"
         id="path14" />
    </clipPath>
    <clipPath
       clipPathUnits="userSpaceOnUse"
       id="clipPath24">
      <path
         d="M 127.369,400.016 H 665.796 V 197.112 H 127.369 Z"
         id="path22" />
    </clipPath>
  </defs>
  <sodipodi:namedview
     id="namedview4"
     pagecolor="#ffffff"
     bordercolor="#000000"
     borderopacity="0.25"
     inkscape:showpageshadow="2"
     inkscape:pageopacity="0.0"
     inkscape:pagecheckerboard="0"
     inkscape:deskcolor="#d1d1d1" />
  <g
     id="g8"
     inkscape:groupmode="layer"
     inkscape:label="MLAB_logotipo"
     transform="matrix(1.3333333,0,0,-1.3333333,0,816)">
    <g
       id="g10">
      <g
         id="g12"
         clip-path="url(#clipPath16)">
        <g
           id="g18">
          <g
             id="g20" />
          <g
             id="g152">
            <g
               clip-path="url(#clipPath24)"
               id="g150">
              <g
                 transform="translate(194.9087,221.209)"
                 id="g28">
                <path
                   d="M 0,0 C 0,-7.213 4.319,-12.441 11.478,-12.441 18.69,-12.441 23.52,-6.7 23.52,0 23.52,7.782 19.202,12.724 11.478,12.724 4.148,12.724 0,6.589 0,0 m 23.52,-13.802 v 6.875 c 0,0 -3.011,-7.384 -11.988,-7.384 -8.689,0 -13.518,6.417 -13.518,14.311 0,8.58 5.284,14.601 13.746,14.601 9.26,0 11.76,-7.271 11.76,-7.271 v 6.586 h 2.042 v -27.718 z"
                   style="fill:#6f7176;fill-opacity:1;fill-rule:nonzero;stroke:none"
                   id="path26" />
              </g>
              <g
                 transform="translate(194.9087,221.209)"
                 id="g32">
                <path
                   d="M 0,0 C 0,-7.213 4.319,-12.441 11.478,-12.441 18.69,-12.441 23.52,-6.7 23.52,0 23.52,7.782 19.202,12.724 11.478,12.724 4.148,12.724 0,6.589 0,0 Z m 23.52,-13.802 v 6.875 c 0,0 -3.011,-7.384 -11.988,-7.384 -8.689,0 -13.518,6.417 -13.518,14.311 0,8.58 5.284,14.601 13.746,14.601 9.26,0 11.76,-7.271 11.76,-7.271 v 6.586 h 2.042 v -27.718 z"
                   style="fill:none;stroke:#6f7176;stroke-width:0.25;stroke-linecap:butt;stroke-linejoin:miter;stroke-miterlimit:10;stroke-dasharray:none;stroke-opacity:1"
                   id="path30" />
              </g>
              <g
                 transform="translate(229.3364,221.667)"
                 id="g36">
                <path
                   d="m 0,0 c 0,-6.99 4.204,-12.161 11.132,-12.161 7.156,0 11.701,5.343 11.701,11.989 0,6.816 -4.6,12.438 -11.303,12.438 C 4.371,12.266 0,6.532 0,0 m 0.737,-18.521 c 0,0 3.693,-4.034 10.506,-4.034 7.331,0 11.59,3.636 11.59,10.622 v 4.829 c 0,0 -3.125,-6.927 -11.59,-6.927 -8.464,0 -13.289,6.188 -13.289,13.973 0,8.524 5.453,14.201 13.687,14.201 8.464,0 11.192,-7.216 11.192,-7.216 v 6.531 h 2.045 v -25.447 c 0,-8.008 -4.943,-12.442 -13.689,-12.442 -7.556,0 -11.533,4.151 -11.533,4.151 z"
                   style="fill:#6f7176;fill-opacity:1;fill-rule:nonzero;stroke:none"
                   id="path34" />
              </g>
              <g
                 transform="translate(229.3364,221.667)"
                 id="g40">
                <path
                   d="m 0,0 c 0,-6.99 4.204,-12.161 11.132,-12.161 7.156,0 11.701,5.343 11.701,11.989 0,6.816 -4.6,12.438 -11.303,12.438 C 4.371,12.266 0,6.532 0,0 Z m 0.737,-18.521 c 0,0 3.693,-4.034 10.506,-4.034 7.331,0 11.59,3.636 11.59,10.622 v 4.829 c 0,0 -3.125,-6.927 -11.59,-6.927 -8.464,0 -13.289,6.188 -13.289,13.973 0,8.524 5.453,14.201 13.687,14.201 8.464,0 11.192,-7.216 11.192,-7.216 v 6.531 h 2.045 v -25.447 c 0,-8.008 -4.943,-12.442 -13.689,-12.442 -7.556,0 -11.533,4.151 -11.533,4.151 z"
                   style="fill:none;stroke:#6f7176;stroke-width:0.25;stroke-linecap:butt;stroke-linejoin:miter;stroke-miterlimit:10;stroke-dasharray:none;stroke-opacity:1"
                   id="path38" />
              </g>
              <g
                 transform="translate(278.5815,233.6504)"
                 id="g44">
                <path
                   d="m 0,0 c -9.256,0 -12.097,-7.499 -12.097,-15.17 v -11.073 h -2.044 V 1.475 h 2.044 V -7.102 C -11.983,-6.31 -10.505,1.876 0,1.876 Z"
                   style="fill:#6f7176;fill-opacity:1;fill-rule:nonzero;stroke:none"
                   id="path42" />
              </g>
              <g
                 transform="translate(278.5815,233.6504)"
                 id="g48">
                <path
                   d="m 0,0 c -9.256,0 -12.097,-7.499 -12.097,-15.17 v -11.073 h -2.044 V 1.475 h 2.044 V -7.102 C -11.983,-6.31 -10.505,1.876 0,1.876 Z"
                   style="fill:none;stroke:#6f7176;stroke-width:0.25;stroke-linecap:butt;stroke-linejoin:miter;stroke-miterlimit:10;stroke-dasharray:none;stroke-opacity:1"
                   id="path46" />
              </g>
              <g
                 transform="translate(282.5029,221.2725)"
                 id="g52">
                <path
                   d="m 0,0 c 0,-7.562 4.885,-12.619 12.215,-12.619 7.497,0 12.269,5.629 12.269,12.619 0,7.719 -4.601,12.66 -12.269,12.66 C 4.43,12.66 0,7.267 0,0 m -2.043,0 c 0,8.797 5.848,14.537 14.314,14.537 8.861,0 14.256,-6.25 14.256,-14.537 0,-8.81 -6.018,-14.489 -14.371,-14.489 -8.861,0 -14.199,6.246 -14.199,14.489"
                   style="fill:#6f7176;fill-opacity:1;fill-rule:nonzero;stroke:none"
                   id="path50" />
              </g>
              <g
                 transform="translate(282.5029,221.2725)"
                 id="g56">
                <path
                   d="m 0,0 c 0,-7.562 4.885,-12.619 12.215,-12.619 7.497,0 12.269,5.629 12.269,12.619 0,7.719 -4.601,12.66 -12.269,12.66 C 4.43,12.66 0,7.267 0,0 Z m -2.043,0 c 0,8.797 5.848,14.537 14.314,14.537 8.861,0 14.256,-6.25 14.256,-14.537 0,-8.81 -6.018,-14.489 -14.371,-14.489 -8.861,0 -14.199,6.246 -14.199,14.489 z"
                   style="fill:none;stroke:#6f7176;stroke-width:0.25;stroke-linecap:butt;stroke-linejoin:miter;stroke-miterlimit:10;stroke-dasharray:none;stroke-opacity:1"
                   id="path54" />
              </g>
              <g
                 transform="translate(317.2671,221.209)"
                 id="g60">
                <path
                   d="M 0,0 C 0,-7.213 4.319,-12.441 11.478,-12.441 18.69,-12.441 23.52,-6.7 23.52,0 23.52,7.782 19.202,12.724 11.478,12.724 4.149,12.724 0,6.589 0,0 m 23.52,-13.802 v 6.875 c 0,0 -3.009,-7.384 -11.987,-7.384 -8.691,0 -13.519,6.417 -13.519,14.311 0,8.58 5.282,14.601 13.747,14.601 9.259,0 11.759,-7.271 11.759,-7.271 v 6.586 h 2.044 v -27.718 z"
                   style="fill:#6f7176;fill-opacity:1;fill-rule:nonzero;stroke:none"
                   id="path58" />
              </g>
              <g
                 transform="translate(317.2671,221.209)"
                 id="g64">
                <path
                   d="M 0,0 C 0,-7.213 4.319,-12.441 11.478,-12.441 18.69,-12.441 23.52,-6.7 23.52,0 23.52,7.782 19.202,12.724 11.478,12.724 4.149,12.724 0,6.589 0,0 Z m 23.52,-13.802 v 6.875 c 0,0 -3.009,-7.384 -11.987,-7.384 -8.691,0 -13.519,6.417 -13.519,14.311 0,8.58 5.282,14.601 13.747,14.601 9.259,0 11.759,-7.271 11.759,-7.271 v 6.586 h 2.044 v -27.718 z"
                   style="fill:none;stroke:#6f7176;stroke-width:0.25;stroke-linecap:butt;stroke-linejoin:miter;stroke-miterlimit:10;stroke-dasharray:none;stroke-opacity:1"
                   id="path62" />
              </g>
              <g
                 transform="translate(373.5649,207.4072)"
                 id="g68">
                <path
                   d="m 0,0 v 18.231 c 0,5.398 -3.583,8.294 -9.205,8.294 -6.589,0 -10.681,-4.429 -10.681,-10.959 V 0 h -2.043 v 27.718 h 2.043 v -5.906 c 0,0 1.878,6.59 10.622,6.59 6.478,0 11.307,-3.638 11.307,-9.601 L 2.043,0 Z"
                   style="fill:#6f7176;fill-opacity:1;fill-rule:nonzero;stroke:none"
                   id="path66" />
              </g>
              <g
                 transform="translate(373.5649,207.4072)"
                 id="g72">
                <path
                   d="m 0,0 v 18.231 c 0,5.398 -3.583,8.294 -9.205,8.294 -6.589,0 -10.681,-4.429 -10.681,-10.959 V 0 h -2.043 v 27.718 h 2.043 v -5.906 c 0,0 1.878,6.59 10.622,6.59 6.478,0 11.307,-3.638 11.307,-9.601 L 2.043,0 Z"
                   style="fill:none;stroke:#6f7176;stroke-width:0.25;stroke-linecap:butt;stroke-linejoin:miter;stroke-miterlimit:10;stroke-dasharray:none;stroke-opacity:1"
                   id="path70" />
              </g>
              <g
                 transform="translate(385.2651,221.209)"
                 id="g76">
                <path
                   d="m 0,0 c 0,-7.213 4.318,-12.441 11.473,-12.441 7.217,0 12.043,5.741 12.043,12.441 0,7.782 -4.314,12.724 -12.043,12.724 C 4.148,12.724 0,6.589 0,0 m 23.516,-13.802 v 6.875 c 0,0 -3.009,-7.384 -11.985,-7.384 -8.691,0 -13.519,6.417 -13.519,14.311 0,8.58 5.281,14.601 13.748,14.601 9.256,0 11.756,-7.271 11.756,-7.271 v 6.586 h 2.046 v -27.718 z"
                   style="fill:#6f7176;fill-opacity:1;fill-rule:nonzero;stroke:none"
                   id="path74" />
              </g>
              <g
                 transform="translate(385.2651,221.209)"
                 id="g80">
                <path
                   d="m 0,0 c 0,-7.213 4.318,-12.441 11.473,-12.441 7.217,0 12.043,5.741 12.043,12.441 0,7.782 -4.314,12.724 -12.043,12.724 C 4.148,12.724 0,6.589 0,0 Z m 23.516,-13.802 v 6.875 c 0,0 -3.009,-7.384 -11.985,-7.384 -8.691,0 -13.519,6.417 -13.519,14.311 0,8.58 5.281,14.601 13.748,14.601 9.256,0 11.756,-7.271 11.756,-7.271 v 6.586 h 2.046 v -27.718 z"
                   style="fill:none;stroke:#6f7176;stroke-width:0.25;stroke-linecap:butt;stroke-linejoin:miter;stroke-miterlimit:10;stroke-dasharray:none;stroke-opacity:1"
                   id="path78" />
              </g>
              <path
                 d="m 419.632,245.919 h 2.043 v -38.512 h -2.043 z"
                 style="fill:#6f7176;fill-opacity:1;fill-rule:nonzero;stroke:#6f7176;stroke-width:0.25;stroke-linecap:butt;stroke-linejoin:miter;stroke-miterlimit:10;stroke-dasharray:none;stroke-opacity:1"
                 id="path82" />
              <path
                 d="m 432.014,235.125 h -2.043 v -27.718 h 2.043 z m 6.134,12.896 1.478,-1.533 -8.35,-8.068 -1.364,1.422 z"
                 style="fill:#6f7176;fill-opacity:1;fill-rule:nonzero;stroke:none"
                 id="path84" />
              <path
                 d="m 432.014,235.125 h -2.043 v -27.718 h 2.043 z m 6.134,12.896 1.478,-1.533 -8.35,-8.068 -1.364,1.422 z"
                 style="fill:none;stroke:#6f7176;stroke-width:0.25;stroke-linecap:butt;stroke-linejoin:miter;stroke-miterlimit:10;stroke-dasharray:none;stroke-opacity:1"
                 id="path86" />
              <g
                 transform="translate(445.3076,233.1982)"
                 id="g90">
                <path
                   d="m 0,0 v -21.812 c 0,-1.766 1.022,-2.675 2.894,-2.675 2.159,0 3.467,0.795 3.467,0.795 v -1.648 c 0,0 -1.704,-0.96 -4.146,-0.96 -2.783,0 -4.262,1.472 -4.262,3.577 V 0 h -5.054 v 1.927 h 5.054 V 9.089 H 0 V 1.927 H 6.361 L 6.361,0 Z"
                   style="fill:#6f7176;fill-opacity:1;fill-rule:nonzero;stroke:none"
                   id="path88" />
              </g>
              <g
                 transform="translate(445.3076,233.1982)"
                 id="g94">
                <path
                   d="m 0,0 v -21.812 c 0,-1.766 1.022,-2.675 2.894,-2.675 2.159,0 3.467,0.795 3.467,0.795 v -1.648 c 0,0 -1.704,-0.96 -4.146,-0.96 -2.783,0 -4.262,1.472 -4.262,3.577 V 0 h -5.054 v 1.927 h 5.054 V 9.089 H 0 V 1.927 H 6.361 L 6.361,0 Z"
                   style="fill:none;stroke:#6f7176;stroke-width:0.25;stroke-linecap:butt;stroke-linejoin:miter;stroke-miterlimit:10;stroke-dasharray:none;stroke-opacity:1"
                   id="path92" />
              </g>
              <path
                 d="m 458.431,235.125 h 2.043 v -27.718 h -2.043 z m 0,9.318 c 0,0.681 0.508,1.025 1.022,1.025 0.512,0 1.021,-0.344 1.021,-1.025 v -3.637 c 0,-0.623 -0.509,-0.964 -1.021,-0.964 -0.514,0 -1.022,0.341 -1.022,0.964 z"
                 style="fill:#6f7176;fill-opacity:1;fill-rule:nonzero;stroke:none"
                 id="path96" />
              <path
                 d="m 458.431,235.125 h 2.043 v -27.718 h -2.043 z m 0,9.318 c 0,0.681 0.508,1.025 1.022,1.025 0.512,0 1.021,-0.344 1.021,-1.025 v -3.637 c 0,-0.623 -0.509,-0.964 -1.021,-0.964 -0.514,0 -1.022,0.341 -1.022,0.964 z"
                 style="fill:none;stroke:#6f7176;stroke-width:0.25;stroke-linecap:butt;stroke-linejoin:miter;stroke-miterlimit:10;stroke-dasharray:none;stroke-opacity:1"
                 id="path98" />
              <g
                 transform="translate(468.4258,220.8721)"
                 id="g102">
                <path
                   d="m 0,0 c 0,9.197 5.682,14.938 14.486,14.938 5.566,0 10.566,-2.959 11.986,-8.241 l -1.874,-0.96 c -1.25,4.885 -4.83,7.324 -10.227,7.324 C 6.363,13.061 2.047,7.495 2.047,0 c 0,-7.334 4.316,-12.104 11.815,-12.104 5.338,0 9.883,2.729 11.359,7.782 l 1.65,-0.792 c -1.706,-5.738 -6.763,-8.86 -13.009,-8.86 C 5.227,-13.974 0,-8.294 0,0"
                   style="fill:#6f7176;fill-opacity:1;fill-rule:nonzero;stroke:none"
                   id="path100" />
              </g>
              <g
                 transform="translate(468.4258,220.8721)"
                 id="g106">
                <path
                   d="m 0,0 c 0,9.197 5.682,14.938 14.486,14.938 5.566,0 10.566,-2.959 11.986,-8.241 l -1.874,-0.96 c -1.25,4.885 -4.83,7.324 -10.227,7.324 C 6.363,13.061 2.047,7.495 2.047,0 c 0,-7.334 4.316,-12.104 11.815,-12.104 5.338,0 9.883,2.729 11.359,7.782 l 1.65,-0.792 c -1.706,-5.738 -6.763,-8.86 -13.009,-8.86 C 5.227,-13.974 0,-8.294 0,0 Z"
                   style="fill:none;stroke:#6f7176;stroke-width:0.25;stroke-linecap:butt;stroke-linejoin:miter;stroke-miterlimit:10;stroke-dasharray:none;stroke-opacity:1"
                   id="path104" />
              </g>
              <g
                 transform="translate(503.249,221.209)"
                 id="g110">
                <path
                   d="m 0,0 c 0,-7.213 4.315,-12.441 11.475,-12.441 7.212,0 12.043,5.741 12.043,12.441 0,7.782 -4.321,12.724 -12.043,12.724 C 4.146,12.724 0,6.589 0,0 m 23.518,-13.802 v 6.875 c 0,0 -3.013,-7.384 -11.988,-7.384 -8.693,0 -13.52,6.417 -13.52,14.311 0,8.58 5.285,14.601 13.746,14.601 9.263,0 11.762,-7.271 11.762,-7.271 v 6.586 h 2.043 v -27.718 z"
                   style="fill:#6f7176;fill-opacity:1;fill-rule:nonzero;stroke:none"
                   id="path108" />
              </g>
              <g
                 transform="translate(503.249,221.209)"
                 id="g114">
                <path
                   d="m 0,0 c 0,-7.213 4.315,-12.441 11.475,-12.441 7.212,0 12.043,5.741 12.043,12.441 0,7.782 -4.321,12.724 -12.043,12.724 C 4.146,12.724 0,6.589 0,0 Z m 23.518,-13.802 v 6.875 c 0,0 -3.013,-7.384 -11.988,-7.384 -8.693,0 -13.52,6.417 -13.52,14.311 0,8.58 5.285,14.601 13.746,14.601 9.263,0 11.762,-7.271 11.762,-7.271 v 6.586 h 2.043 v -27.718 z"
                   style="fill:none;stroke:#6f7176;stroke-width:0.25;stroke-linecap:butt;stroke-linejoin:miter;stroke-miterlimit:10;stroke-dasharray:none;stroke-opacity:1"
                   id="path112" />
              </g>
              <g
                 transform="translate(128.2598,346.1021)"
                 id="g118">
                <path
                   d="m 0,0 h 14.039 v -7.88 c 1.376,2.849 7.426,9.82 18.274,9.82 5.135,0 10.844,-1.482 15.411,-6.392 1.372,-1.489 2.97,-4.115 3.77,-5.709 1.138,1.94 2.51,3.994 4.567,5.934 3.882,3.658 9.362,6.167 15.981,6.167 5.253,0 11.877,-1.368 16.67,-6.278 5.713,-5.94 6.851,-11.073 6.851,-23.979 V -62.682 H 80.607 v 33.79 c 0,4.004 -0.339,8.342 -2.511,11.652 -1.598,3.082 -4.568,5.133 -9.819,5.133 -5.256,0 -8.906,-2.28 -10.847,-5.702 -1.94,-3.432 -2.169,-6.742 -2.169,-10.508 V -62.682 H 40.303 v 34.365 c 0,3.658 -0.344,7.194 -1.939,10.393 -1.828,3.308 -4.913,5.712 -10.278,5.817 -5.48,0 -8.906,-2.624 -10.733,-5.817 -1.829,-3.317 -2.398,-7.197 -2.398,-10.85 V -62.682 H 0 Z"
                   style="fill:#000f9f;fill-opacity:1;fill-rule:nonzero;stroke:none"
                   id="path116" />
              </g>
              <g
                 transform="translate(295.7295,283.4199)"
                 id="g122">
                <path
                   d="M 0,0 H -14.041 V 8.336 C -16.667,3.422 -22.263,-2.058 -33.564,-1.943 -54.118,-1.832 -58.002,13.815 -58.002,24.78 v 37.902 h 14.96 V 28.546 c 0,-9.248 3.084,-16.557 13.705,-16.448 10.726,0 14.385,7.086 14.385,15.99 V 62.682 H 0 Z"
                   style="fill:#000f9f;fill-opacity:1;fill-rule:nonzero;stroke:none"
                   id="path120" />
              </g>
              <path
                 d="m 311.699,367.912 h 14.955 V 283.42 h -14.955 z"
                 style="fill:#000f9f;fill-opacity:1;fill-rule:nonzero;stroke:none"
                 id="path124" />
              <g
                 transform="translate(346.6289,334.5645)"
                 id="g128">
                <path
                   d="M 0,0 H -10.39 V 11.538 H 0 v 21.81 H 14.955 V 11.538 H 25.689 V 0 H 14.955 V -51.145 H 0 Z"
                   style="fill:#000f9f;fill-opacity:1;fill-rule:nonzero;stroke:none"
                   id="path126" />
              </g>
              <path
                 d="m 382.127,346.102 h 14.956 V 283.42 h -14.956 z m 0,21.81 h 14.956 v -13.363 h -14.956 z"
                 style="fill:#000f9f;fill-opacity:1;fill-rule:nonzero;stroke:none"
                 id="path130" />
              <path
                 d="m 412.942,367.912 h 14.963 V 283.42 h -14.963 z"
                 style="fill:#000f9f;fill-opacity:1;fill-rule:nonzero;stroke:none"
                 id="path132" />
              <g
                 transform="translate(455.4121,314.478)"
                 id="g136">
                <path
                   d="m 0,0 c 0,-7.769 5.601,-19.069 19.063,-19.069 8.343,0 13.821,4.332 16.673,10.044 1.486,2.747 2.175,5.708 2.398,8.79 C 38.25,2.732 37.677,5.82 36.422,8.561 33.8,14.501 27.974,19.635 18.953,19.635 6.855,19.635 0,9.82 0,0.115 Z M 52.984,-31.058 H 38.021 v 9.016 c -3.996,-7.305 -12.33,-10.959 -21.123,-10.959 -20.094,0 -31.852,15.643 -31.852,33.341 0,19.746 14.267,33.224 31.852,33.224 11.419,0 18.383,-6.055 21.123,-11.077 v 9.137 h 14.963 z"
                   style="fill:#000f9f;fill-opacity:1;fill-rule:nonzero;stroke:none"
                   id="path134" />
              </g>
              <g
                 transform="translate(576.5342,314.9297)"
                 id="g140">
                <path
                   d="m 0,0 c 0,10.278 -7.876,19.183 -18.839,19.183 -11.646,0 -18.957,-9.134 -18.957,-19.294 0,-10.504 7.311,-19.41 18.609,-19.41 C -6.96,-19.521 0,-9.82 0,-0.111 Z m -52.175,52.982 h 14.951 V 30.943 23.406 c 6.169,7.652 15.188,9.706 20.898,9.706 14.842,0 31.282,-10.847 31.282,-32.991 0,-21.237 -14.845,-33.574 -31.966,-33.574 -9.823,0 -17.47,4.8 -20.786,10.96 v -9.017 h -14.379 z"
                   style="fill:#000f9f;fill-opacity:1;fill-rule:nonzero;stroke:none"
                   id="path138" />
              </g>
              <g
                 transform="translate(635.8799,286.3525)"
                 id="g144">
                <path
                   d="m 0,0 c -7.134,18.187 -14.273,36.381 -21.413,54.565 -2.064,5.264 -5.921,12.842 -6.013,16.989 -0.234,10.788 -3.679,29.074 3.582,37.693 1.401,1.663 0.573,4.417 -1.829,4.417 -12.101,-0.004 -24.202,-0.013 -36.303,-0.017 -2.371,0 -3.274,-2.766 -1.828,-4.417 6.207,-7.098 4.386,-18.264 4.463,-27.235 0.022,-2.064 0.038,-4.131 0.057,-6.192 19.457,-7.149 33.34,-25.848 33.34,-47.792 0,-4.85 -0.597,-9.471 -1.711,-13.815 -5.707,-16.444 -17.048,-24.666 -25.833,-28.692 h -450.325 c -2.594,0 -4.698,-2.344 -4.698,-5.228 0,-2.887 2.104,-5.228 4.698,-5.228 H -21.4 c 0.072,0 0.136,0.018 0.205,0.018 h 4.012 c 5.872,0 11.23,-0.368 16.406,3.067 C 6.637,-16.938 2.822,-6.425 0,0"
                   style="fill:#81bc00;fill-opacity:1;fill-rule:nonzero;stroke:none"
                   id="path142" />
              </g>
              <g
                 transform="translate(654.7568,270.8096)"
                 id="g148">
                <path
                   d="M 0,0 H 1.029 C 2.23,0 3.204,0.4 3.204,1.374 3.204,2.23 2.573,2.804 1.201,2.804 0.629,2.804 0.229,2.745 0,2.687 Z M -0.056,-5.318 H -2.23 v 9.379 c 0.859,0.171 2.057,0.286 3.604,0.286 1.772,0 2.572,-0.286 3.26,-0.687 0.514,-0.4 0.915,-1.143 0.915,-2.058 0,-1.03 -0.802,-1.831 -1.945,-2.175 v -0.114 c 0.913,-0.342 1.43,-1.029 1.714,-2.287 0.286,-1.429 0.458,-2.002 0.687,-2.344 H 3.66 c -0.286,0.342 -0.456,1.201 -0.743,2.287 -0.172,1.028 -0.745,1.487 -1.943,1.487 h -1.03 z M -5.833,-0.4 c 0,-4.175 3.088,-7.494 7.32,-7.494 4.117,0 7.149,3.319 7.149,7.438 0,4.175 -3.032,7.548 -7.206,7.548 -4.175,0 -7.263,-3.373 -7.263,-7.492 m 16.872,0 c 0,-5.319 -4.175,-9.494 -9.609,-9.494 -5.376,0 -9.665,4.175 -9.665,9.494 0,5.204 4.289,9.379 9.665,9.379 5.434,0 9.609,-4.175 9.609,-9.379"
                   style="fill:#81bc00;fill-opacity:1;fill-rule:nonzero;stroke:none"
                   id="path146" />
              </g>
            </g>
          </g>
        </g>
      </g>
    </g>
  </g>
</svg>
